<svg xmlns="http://www.w3.org/2000/svg" viewBox="0 0 620.09 37.18">
  <g id="レイヤー_2" data-name="レイヤー 2">
    <g id="レイヤー_1-2" data-name="レイヤー 1">
      <g>
        <g>
          <polygon points="332.44 18.39 341.25 18.39 341.25 13.29 317.64 13.29 317.64 18.39 326.74 18.39 326.74 31.04 316.78 31.04 316.78 36.14 342.11 36.14 342.11 31.04 332.44 31.04 332.44 18.39" style="fill: #00a0e9"/>
          <g>
            <path d="M71.46,3.3H65V9.69H52V3.3H45.4V9.69h-7v5.54h7v7.21H52V15.23H64.84C64.78,20,65.64,26,61.06,29c-3.12,1.87-6.88,1.5-10.54,1.7v5.48c4.85.06,10-.14,14.18-2.36A13.81,13.81,0,0,0,71.31,22.3c.12-2.36.23-4.56.23-7.07H78.4V9.69H71.46Z" style="fill: #00a0e9"/>
            <path d="M0,3.3V8.8H28.43c0,1.85.19,4-.9,5.53-1.94,2.92-5.16,2.35-7.91,2.39v-4H13.32c0,6,.3,12.29-1.7,15.34s-5.5,2.44-8.85,2.63v5.42c3.78.09,7.74.1,11-1.55,4.45-2.57,5.69-7.38,5.83-12.34,3.18-.07,5.91.05,8.8-1a9.8,9.8,0,0,0,4.73-4C35.44,13.57,35,9,35,3.3Z" style="fill: #00a0e9"/>
            <path d="M88.38,3.3H81.91V27.81c0,6.14,4.46,8.33,9.2,8.33h21.12V30.72h-18c-4.67,0-5.86-.41-5.86-4.13V17.22h24V11.57h-24Z" style="fill: #00a0e9"/>
          </g>
          <path d="M371.69,3.3V29.8c7.16.45,7.56-8,7.66-11.58l5.57,0c0,9.33-2.08,17.62-14.26,17.88-1.83.13-3.67.06-5.51,0V3.3Z" style="fill: #00a0e9"/>
          <path d="M360.1,3.3c0,9.75.1,13.21-.38,19.22-.7,8.64-7.16,13.42-13.93,14.08V31.24c7.07-2,8.28-6.9,8.5-12.84V3.3Z" style="fill: #00a0e9"/>
          <g>
            <path d="M234,.44a5,5,0,1,0,5,5A5,5,0,0,0,234,.44Zm0,6.76a1.87,1.87,0,1,1,1.87-1.87A1.87,1.87,0,0,1,234,7.2Z" style="fill: #00a0e9"/>
            <path d="M140.19,9.81V3.27h-6.63V9.81H123.49v5.48h10.07v2.9c-.08,5.11-1.83,8.52-4,10.15a11.76,11.76,0,0,1-6.42,2.33h-.65v5.44h.32c5.31-.15,9.92-1.46,13-5.33,2.26-2.85,4.13-5.94,4.42-14.35V15.29H151.3V28.81c0,1.84-.11,1.9-1.9,1.9h-7v5.45h8.41c5.19,0,7.16-3.2,7.16-6.59V9.81Z" style="fill: #00a0e9"/>
            <g>
              <path d="M188.12,3.42V29.87c7.15.44,7.54-8,7.65-11.56l5.54,0c0,9.31-2.06,17.58-14.21,17.84-1.83.12-3.67.06-5.5,0V3.42Z" style="fill: #00a0e9"/>
              <path d="M176.56,3.42c0,9.73.1,13.19-.38,19.19-.7,8.62-7.15,13.38-13.89,14V31.3c7-2,8.25-6.88,8.47-12.8V3.42Z" style="fill: #00a0e9"/>
            </g>
            <path d="M211.48,3.42v8.25h23.93v5.65H211.48v9.35c0,3.71,1.19,4.12,5.85,4.12h17.95v5.4H214.2c-4.72,0-9.18-2.18-9.18-8.3V3.42Z" style="fill: #00a0e9"/>
            <path d="M265.09,23.93a27.68,27.68,0,0,0,3-8c.74-3.4.87-6.42.89-12.48H243.43V9h19.35a25.57,25.57,0,0,1-2.42,10.63c-2.85,6.58-10.34,11-19.86,11.12v5.46c7.07-.15,12.32-1.4,18.41-5.5a18.5,18.5,0,0,0,2.66-2.19L274,37.06V30.14Z" style="fill: #00a0e9"/>
          </g>
          <path d="M413.07,18.61a37.39,37.39,0,0,0,5.09-7.09,45,45,0,0,0,2.46-5.21H409.27V2h-6.4V6.31H390.59v5.38h19.88c-.2.3-.41.59-.62.87-5.21,7-14.06,11.44-22.21,12.21v5.61a42.6,42.6,0,0,0,15.23-4.31v10h6.4V23.53l14.52,7.55V24.15Z" style="fill: #00a0e9"/>
          <path d="M301,6.27V2h-6.4V6.27H280.92V18.39h6.4V11.7h21.2a21,21,0,0,1-4.64,12.18c-4,4.91-10.05,6.85-19.12,6.85v5.44c10.71,0,18.36-2.89,22.86-7.78,3.95-4.23,6-9.58,6.81-16.69a36.75,36.75,0,0,0,.25-5.43Z" style="fill: #00a0e9"/>
          <path d="M450.7,23.84a27.43,27.43,0,0,0,3.05-8c.74-3.4.87-6.43.88-12.49H429V8.89H448.4A25.59,25.59,0,0,1,446,19.54c-2.85,6.6-10.35,11-19.9,11.15v5.48c7.1-.17,12.34-1.44,18.45-5.52a20.85,20.85,0,0,0,2.67-2.21L459.61,37V30.06Z" style="fill: #00a0e9"/>
        </g>
        <g>
          <path d="M467.14,20.27V14.21c5.33.15,12.45.74,17.73,1.45v6.1C479.28,21.06,472.11,20.39,467.14,20.27ZM467.53,9v-6c5.21.15,12.18.7,17.73,1.37v6.18C479.9,9.82,472.5,9.12,467.53,9Zm.47,27.6V30.14c16.52-.47,24.39-5.83,25.84-21.49h6.88C499.24,29.24,487,36.32,468,36.56Z" style="fill: #00a0e9"/>
          <path d="M508.55,36.28V30.53h21v-6H509.06V18.83h20.51V13.58h-21V7.87H536V36.28Z" style="fill: #00a0e9"/>
          <path d="M549.37,22.7A127,127,0,0,0,545.93,8H552a124.65,124.65,0,0,1,3.68,14.72Zm3.33,14.48V31.27c13-2.7,16.91-9.35,17-22.58V8h6.62v.75C576.14,27.32,567.41,35.07,552.7,37.18Zm6.73-14.83A129.07,129.07,0,0,0,556.1,7.71h6a106.27,106.27,0,0,1,3.6,14.64Z" style="fill: #00a0e9"/>
          <path d="M616.26,8.14C614.85,26.77,603,35.26,588.51,36.71V30.65c12.09-2,19.37-9.44,20.55-21.06H584.2V3.48H612A4,4,0,0,1,613.4,1,4,4,0,0,1,616,0a4.09,4.09,0,0,1,4.07,4.07A4.16,4.16,0,0,1,616.26,8.14ZM616,2.35a1.72,1.72,0,1,0,1.73,1.72A1.73,1.73,0,0,0,616,2.35Z" style="fill: #00a0e9"/>
        </g>
      </g>
    </g>
  </g>
</svg>
